HIERARCHY
ROOT Hips
{
	OFFSET 0.000000 8.830580 0.000000
	CHANNELS 6 Xposition Yposition Zposition Zrotation Yrotation Xrotation 
	JOINT Spine
	{
		OFFSET 0.000000 0.010000 0.000000
		CHANNELS 3 Zrotation Yrotation Xrotation
		JOINT Spine1
		{
			OFFSET 0.000000 2.459130 0.000000
			CHANNELS 3 Zrotation Yrotation Xrotation
			JOINT Neck
			{
				OFFSET 0.000000 2.484630 0.000000
				CHANNELS 3 Zrotation Yrotation Xrotation
				JOINT Head_virtual
				{
					OFFSET 0.000000 0.000000 0.000000
					CHANNELS 3 Zrotation Yrotation Xrotation
					JOINT Head
					{
						OFFSET 0.000000 0.927525 0.000000
						CHANNELS 3 Zrotation Yrotation Xrotation
						End Site
						{
							OFFSET 0.000000 0.000000 0.000000
						}
					}
				}
				JOINT LeftUpArm_virtual
				{
					OFFSET 0.000000 0.000000 0.000000
					CHANNELS 3 Zrotation Yrotation Xrotation
					JOINT LeftUpArm
					{
						OFFSET 1.248820 0.000000 0.000000
						CHANNELS 3 Zrotation Yrotation Xrotation
						JOINT LeftForeArm
						{
							OFFSET 2.597580 0.000000 0.000000
							CHANNELS 3 Zrotation Yrotation Xrotation
							JOINT LeftHand
							{
								OFFSET 2.455420 0.000000 0.000000
								CHANNELS 3 Zrotation Yrotation Xrotation
								End Site
								{
									OFFSET 0.000000 0.000000 0.000000
								}
							}
						}
					}
				}
				JOINT RightUpArm_virtual
				{
					OFFSET -0.000000 -0.000000 -0.000000
					CHANNELS 3 Zrotation Yrotation Xrotation
					JOINT RightUpArm
					{
						OFFSET -1.248820 -0.000000 -0.000000
						CHANNELS 3 Zrotation Yrotation Xrotation
						JOINT RightForeArm
						{
							OFFSET -2.597580 -0.000000 -0.000000
							CHANNELS 3 Zrotation Yrotation Xrotation
							JOINT RightHand
							{
								OFFSET -2.455420 -0.000000 -0.000000
								CHANNELS 3 Zrotation Yrotation Xrotation
								End Site
								{
									OFFSET 0.000000 0.000000 0.000000
								}
							}
						}
					}
				}
			}
		}
	}
	JOINT LeftUpLeg
	{
		OFFSET 1.271939 0.000000 0.000000
		CHANNELS 3 Zrotation Yrotation Xrotation
		JOINT LeftLowLeg
		{
			OFFSET 0.000000 -4.342910 0.000000
			CHANNELS 3 Zrotation Yrotation Xrotation
			JOINT LeftFoot
			{
				OFFSET 0.000000 -4.487670 0.000000
				CHANNELS 3 Zrotation Yrotation Xrotation
				JOINT LeftToeBase
				{
					OFFSET 0.000000 0.000000 1.515070
					CHANNELS 3 Zrotation Yrotation Xrotation
					End Site
					{
						OFFSET 0.000000 0.000000 0.000000
					}
				}
			}
		}
	}
	JOINT RightUpLeg
	{
		OFFSET -1.271939 0.000000 0.000000
		CHANNELS 3 Zrotation Yrotation Xrotation
		JOINT RightLowLeg
		{
			OFFSET 0.000000 -4.342910 0.000000
			CHANNELS 3 Zrotation Yrotation Xrotation
			JOINT RightFoot
			{
				OFFSET 0.000000 -4.487670 0.000000
				CHANNELS 3 Zrotation Yrotation Xrotation
				JOINT RightToeBase
				{
					OFFSET 0.000000 0.000000 1.515070
					CHANNELS 3 Zrotation Yrotation Xrotation
					End Site
					{
						OFFSET 0.000000 0.000000 0.000000
					}
				}
			}
		}
	}
}
MOTION
Frames: 12
Frame Time: 0.041667
-15.195736 3.261951 42.874752 176.104403 -40.612679 -122.096202 5.559662 -3.304382 53.180658 -10.300852 -3.320310 8.347232 0.000000 0.000000 0.000000 14.527874 7.639479 -37.663112 -3.359111 4.692603 -99.935321 -19.014500 20.320499 21.203699 75.274803 -12.898200 -115.617996 180.000000 -67.922997 -180.000000 102.216003 -29.331499 -6.999850 17.734100 -13.579500 -17.445400 -33.587502 35.677200 -72.089897 -180.000000 61.893997 -180.000000 -98.359398 30.511499 -11.470700 -20.325086 -17.714176 -85.051533 0.000000 0.000000 147.320007 7.636618 18.829521 -24.891301 0.000000 0.000000 -54.528900 -12.115838 -5.669391 -3.097205 0.000000 0.000000 53.373798 19.158979 1.010383 -7.461467 0.000000 0.000000 -61.556599 
-15.195337 3.261792 42.874540 176.088997 -40.612856 -122.083133 5.556497 -3.301118 53.180606 -10.303280 -3.322335 8.351136 0.000000 0.000000 0.000000 14.564763 7.643097 -37.624013 -3.369634 4.676286 -99.934104 -19.007200 20.327000 21.195801 75.283302 -12.905400 -115.598000 180.000000 -67.982002 -180.000000 102.057999 -29.519501 -6.702960 17.735100 -13.589900 -17.392200 -33.606098 35.646900 -72.142998 180.000000 61.852997 -180.000000 -98.410797 30.430300 -11.593200 -20.329203 -17.722948 -85.049396 0.000000 0.000000 147.320007 7.641628 18.846255 -24.898861 0.000000 0.000000 -54.516998 -12.096643 -5.722606 -3.089492 0.000000 0.000000 53.356800 18.980759 0.789029 -7.533319 0.000000 0.000000 -61.713902 
-15.195218 3.261771 42.874202 176.073486 -40.626035 -122.064028 5.562371 -3.317308 53.180251 -10.299478 -3.323077 8.346564 0.000000 0.000000 0.000000 14.522535 7.625140 -37.580699 -3.327284 4.661831 -99.931880 -19.011101 20.328800 21.184099 75.265198 -12.905500 -115.569000 -180.000000 -68.004997 180.000000 102.024002 -29.576700 -6.638700 17.725100 -13.575000 -17.415400 -33.557098 35.605301 -72.113197 -180.000000 61.842003 -180.000000 -98.304100 30.933500 -11.393400 -20.329103 -17.755826 -85.052948 0.000000 0.000000 147.319000 7.587272 18.849874 -24.901469 0.000000 0.000000 -54.462299 -12.087481 -5.783554 -3.092356 0.000000 0.000000 53.368801 18.958904 0.740075 -7.573536 0.000000 0.000000 -61.485500 
-15.195237 3.261341 42.874104 176.062231 -40.636802 -122.044204 5.569021 -3.329104 53.166897 -10.298757 -3.320902 8.341628 0.000000 0.000000 0.000000 14.523315 7.609178 -37.546223 -3.332757 4.645843 -99.953121 -19.012300 20.331200 21.193701 75.260902 -12.901100 -115.546997 -180.000000 -68.008003 180.000000 102.021004 -29.587200 -6.617250 17.728399 -13.551300 -17.412300 -33.533901 35.558399 -72.086800 -180.000000 61.897003 -180.000000 -97.981903 31.938601 -10.381400 -20.330663 -17.775570 -85.064491 0.000000 0.000000 147.322998 7.587055 18.869144 -24.891166 0.000000 0.000000 -54.517399 -12.078527 -5.832958 -3.093321 0.000000 0.000000 53.362499 18.950187 0.697579 -7.594967 0.000000 0.000000 -61.480400 
-15.195007 3.260580 42.873147 176.050217 -40.666248 -122.013457 5.620655 -3.378313 53.165523 -10.358479 -3.284866 8.298851 0.000000 0.000000 0.000000 14.550116 7.563956 -37.477151 -3.345690 4.604533 -99.990672 -18.951700 20.272699 21.302601 75.210899 -12.797000 -115.434998 -180.000000 -68.003998 180.000000 102.150002 -29.514500 -6.697660 17.758900 -13.590000 -17.330799 -33.522900 35.509102 -72.231300 180.000000 61.904999 -180.000000 -97.841904 32.094799 -10.548100 -20.281520 -17.811993 -85.101139 0.000000 0.000000 147.341003 7.576170 18.831745 -24.856609 0.000000 0.000000 -54.506199 -12.029862 -5.933653 -3.088041 0.000000 0.000000 53.346600 18.950287 0.563423 -7.653572 0.000000 0.000000 -61.340099 
-15.195138 3.260199 42.873098 176.031018 -40.669714 -121.994268 5.609945 -3.393160 53.150519 -10.352791 -3.303377 8.315955 0.000000 0.000000 0.000000 14.539487 7.579881 -37.467114 -3.357018 4.610289 -99.986280 -18.958300 20.299601 21.306801 75.199600 -12.774300 -115.417000 180.000000 -68.017998 -180.000000 102.108002 -29.573700 -6.640340 17.757401 -13.584100 -17.320101 -33.526299 35.521702 -72.249802 -180.000000 61.905998 -180.000000 -97.757401 32.028702 -10.514300 -20.292799 -17.816211 -85.098654 0.000000 0.000000 147.339996 7.584957 18.845443 -24.857494 0.000000 0.000000 -54.595200 -12.034207 -6.004460 -3.086671 0.000000 0.000000 53.354301 18.908739 0.499518 -7.691494 0.000000 0.000000 -61.221199 
-15.195198 3.260218 42.873057 176.026278 -40.672526 -121.987519 5.608485 -3.396604 53.147476 -10.349276 -3.306210 8.321419 0.000000 0.000000 0.000000 14.516662 7.597675 -37.437260 -3.334756 4.610391 -99.980057 -18.954800 20.316601 21.295601 75.199097 -12.781500 -115.387001 180.000000 -68.008003 -180.000000 102.049004 -29.539400 -6.537800 17.759600 -13.582400 -17.350300 -33.530102 35.526600 -72.210297 180.000000 61.915001 180.000000 -97.735199 31.930401 -10.416600 -20.278954 -17.818800 -85.100964 0.000000 0.000000 147.341003 7.539467 18.774749 -24.879232 0.000000 0.000000 -54.541302 -12.029120 -6.037361 -3.090679 0.000000 0.000000 53.361301 18.892590 0.456315 -7.714047 0.000000 0.000000 -61.217201 
-15.195009 3.260444 42.872935 176.048704 -40.675124 -121.998445 5.599034 -3.397804 53.133801 -10.350967 -3.314345 8.358711 0.000000 0.000000 0.000000 14.521769 7.645244 -37.389650 -3.355593 4.615827 -99.939262 -18.957800 20.363600 21.291599 75.204597 -12.746400 -115.353996 180.000000 -68.041000 -180.000000 102.084000 -29.484100 -6.694020 17.770599 -13.575700 -17.367701 -33.582401 35.556400 -72.239799 180.000000 61.914001 180.000000 -97.749298 31.700100 -10.774100 -20.263110 -17.806175 -85.113616 0.000000 0.000000 147.348999 7.506421 18.765904 -24.882750 0.000000 0.000000 -54.504101 -12.007500 -6.018845 -3.106974 0.000000 0.000000 53.360600 19.276761 0.732889 -7.627228 0.000000 0.000000 -62.393799 
-15.195097 3.260600 42.873105 176.067045 -40.676076 -122.009517 5.599959 -3.404205 53.130793 -10.366477 -3.314271 8.376841 0.000000 0.000000 0.000000 14.530575 7.691933 -37.326281 -3.392018 4.614947 -99.927302 -18.971399 20.390600 21.279200 75.237602 -12.713000 -115.282997 180.000000 -68.088997 -180.000000 102.122002 -29.456400 -6.750070 17.766199 -13.597600 -17.456400 -33.525200 35.653900 -72.210503 180.000000 61.928001 180.000000 -97.816299 31.566601 -11.019400 -20.257431 -17.804495 -85.119389 0.000000 0.000000 147.350006 7.539650 18.810816 -24.853732 0.000000 0.000000 -54.544399 -11.996527 -6.041323 -3.110381 0.000000 0.000000 53.355499 19.298337 0.693657 -7.649663 0.000000 0.000000 -62.330399 
-15.195311 3.260521 42.873360 176.071995 -40.681223 -122.009925 5.601063 -3.419889 53.121387 -10.370414 -3.318753 8.390683 0.000000 0.000000 0.000000 14.487700 7.695167 -37.311222 -3.362802 4.617779 -99.915724 -18.979401 20.404499 21.283600 75.230003 -12.678500 -115.240997 -180.000000 -68.092003 180.000000 102.146004 -29.382099 -6.725610 17.742201 -13.605900 -17.478800 -33.487400 35.720402 -72.262901 -180.000000 61.863998 -180.000000 -97.996597 30.526100 -11.982100 -20.261473 -17.803940 -85.117689 0.000000 0.000000 147.350006 7.490111 18.775843 -24.872141 0.000000 0.000000 -54.522301 -11.990354 -6.046942 -3.109146 0.000000 0.000000 53.351101 19.307536 0.690936 -7.655059 0.000000 0.000000 -62.123699 
-15.195422 3.260690 42.873230 176.067574 -40.680123 -122.004693 5.605365 -3.424306 53.121137 -10.363293 -3.314142 8.400129 0.000000 0.000000 0.000000 14.511636 7.692433 -37.251726 -3.386240 4.598202 -99.894395 -18.978600 20.417000 21.281200 75.227600 -12.683000 -115.218002 180.000000 -68.130997 -180.000000 102.200996 -29.453300 -6.785770 17.744600 -13.605600 -17.476299 -33.498199 35.692699 -72.337097 180.000000 61.873001 180.000000 -97.850304 30.718399 -11.957400 -20.269580 -17.784376 -85.103887 0.000000 0.000000 147.339996 7.557640 18.837173 -24.871995 0.000000 0.000000 -54.563702 -11.986028 -6.061898 -3.113094 0.000000 0.000000 53.355900 19.273652 0.641805 -7.653883 0.000000 0.000000 -61.668098 
-15.195828 3.260461 42.873256 176.048445 -40.709706 -121.992663 5.603514 -3.468724 53.110532 -10.328179 -3.335915 8.410825 0.000000 0.000000 0.000000 14.503919 7.691620 -37.153343 -3.395244 4.571036 -99.903678 -19.004900 20.465799 21.348499 75.194702 -12.620800 -115.264000 180.000000 -68.129997 180.000000 102.288002 -29.565300 -6.939420 17.719299 -13.580000 -17.577101 -33.444199 35.791302 -72.307404 180.000000 61.899002 180.000000 -97.575203 31.146799 -11.660700 -20.272716 -17.804157 -85.088152 0.000000 0.000000 147.337006 7.515367 18.814162 -24.889084 0.000000 0.000000 -54.449699 -11.962842 -6.125541 -3.106967 0.000000 0.000000 53.375999 18.918118 0.284546 -7.761296 0.000000 0.000000 -61.261700 
